<svg xmlns="http://www.w3.org/2000/svg" version="1.1" xmlns:xlink="http://www.w3.org/1999/xlink" width="1500" height="117" viewBox="0 0 1500 117"><svg xml:space="preserve" width="1500" height="117" data-version="2" data-id="lg_Au13urNrSDrxNs34HT" viewBox="0 0 615 117" x="0" y="0"><rect width="100%" height="100%" fill="transparent"></rect><path d="M127.639 33.08q0 9.01-4.8 15.27t-15.33 6.26q-10.53 0-15.56-5.97-5.03-5.96-5.03-14.39 0-13.34 12.52-20.94 12.52-7.61 40.02-7.61h5.26q44.81 0 44.81 23.87 0 11.94-11.11 16.85 6.78 2.34 10.76 7.66 3.98 5.33 3.98 12.82 0 10.06-8.07 16.55-8.08 6.49-23.4 6.49-2.58 0-11.94-.58-9.36-.59-14.97-.59h-13.11V74.73h11.35V19.86q-17.55.47-24.51 3.8-6.96 3.34-6.96 10.12 0 6.79 5.96 6.79 5.5 0 5.5-7.49zm25.27 22.12V41.16h9.24q4.45 0 7.43-2.58 2.99-2.57 2.99-7.9 0-5.32-5.5-8.13-5.5-2.81-18.84-2.81v55.35q11.7.81 16.38.81t8.13-2.92q3.45-2.93 3.45-7.9 0-4.97-3.51-7.43-3.51-2.45-9.24-2.45Z"></path><rect width="106.24" height="84.24" x="-53.12" y="-42.12" fill="none" rx="0" ry="0" transform="translate(140.54 48.32)"></rect><path d="M200.409 13.89V1.02h24.22V75.9h10.18v12.87h-34.51V75.9h9.12V13.89Z"></path><rect width="34.51" height="87.75" x="-17.25" y="-43.88" fill="none" rx="0" ry="0" transform="translate(218.05 45.4)"></rect><path d="m249.669 81.34-3.92-4.29q-3.92-4.3-3.92-17.53 0-13.22 7.84-21.82t22-8.6q14.15 0 21.99 8.6 7.84 8.6 7.84 21.82 0 13.23-7.84 21.82-7.84 8.6-21.99 8.6-14.16 0-22-8.6m11.23-33.57-1.93 2.31q-1.93 2.31-1.93 9.44 0 7.14 3.86 11.76t10.77 4.62q6.9 0 10.76-4.62 3.86-4.62 3.86-11.76 0-7.13-3.86-11.75-3.86-4.63-10.76-4.63-6.91 0-10.77 4.63"></path><rect width="59.67" height="60.84" x="-29.84" y="-30.42" fill="none" rx="0" ry="0" transform="translate(272.16 60.02)"></rect><path d="M317.409 64.67q-5.96-5.5-5.96-14.56 0-9.07 6.66-15.04 6.67-5.97 18.49-5.97 7.49 0 12.64 2.58h19.3v13.69h-7.72q.94 2.81.94 4.79 0 9.13-6.67 15.1-6.67 5.96-18.49 5.96-4.33 0-8.42-.93-.94.12-1.7.88t-.76 1.81q0 1.05.82 1.52 1.29.94 5.03 1.29l17.32 2.45q7.95 1.17 12.63 5.8 4.68 4.62 4.68 12.51 0 7.9-8.54 13.17-8.54 5.26-21.64 5.26-13.11 0-19.54-4.79-6.44-4.8-6.44-12.17 0-3.75 1.64-6.96 1.64-3.22 5.15-4.63-6.32-2.57-6.32-10.35 0-7.78 6.9-11.41m11.82-19.6-1.29.97q-1.28.97-1.28 4.12 0 3.16 2.57 5.09 2.57 1.93 7.37 1.93 4.8 0 7.37-1.93 2.58-1.93 2.58-5.09 0-3.15-2.58-5.09-2.57-1.93-7.37-1.93-4.8 0-7.37 1.93m-3.98 52.25q0 3.62 10.06 3.62 6.91 0 11.29-1.28 4.39-1.29 4.39-3.87 0-3.04-5.26-3.62l-14.39-1.64q-2.46.47-4.27 2.46-1.82 1.99-1.82 4.33"></path><rect width="58.5" height="85.88" x="-29.25" y="-42.94" fill="none" rx="0" ry="0" transform="translate(339.79 72.54)"></rect><path d="M378.719 13.89h-9.01V1.02h24.22v33.93q5.27-5.85 14.16-5.85 11.7 0 18.07 8.6 6.38 8.6 6.38 21.88t-7.84 21.82q-7.84 8.54-22.7 8.54-10.99 0-23.28-3.51Zm38.61 45.99v-3.57q0-3.57-2.92-8.37-2.93-4.8-8.31-4.8-5.38 0-8.78 5.5-3.39 5.5-3.39 13.22V74.5q3.16 1.4 7.14 1.4 8.07 0 12.17-4.44 4.09-4.45 4.09-11.58"></path><rect width="62.83" height="88.92" x="-31.41" y="-44.46" fill="none" rx="0" ry="0" transform="translate(401.62 45.98)"></rect><path d="M495.489 59.06v6.2h-39.55q.35 4.68 3.92 7.66 3.57 2.98 8.37 2.98 4.79 0 8.13-.7 3.33-.7 4.68-1.28 1.34-.59 4.03-2.11l2.81-1.52 6.09 11.82q-9.6 7.83-23.87 7.83-14.28 0-21.82-8.6-7.55-8.59-7.55-21.82 0-13.22 7.55-21.82 7.54-8.6 20.59-8.6 13.04 0 19.83 8.43 6.79 8.42 6.79 21.53m-15.21-5.62q-.47-4.68-3.22-7.49-2.75-2.81-7.84-2.81t-8.42 2.87q-3.34 2.87-4.39 7.43z"></path><rect width="54.76" height="60.84" x="-27.38" y="-30.42" fill="none" rx="0" ry="0" transform="translate(468.6 60.02)"></rect><path d="M537.609 81.17q-7.26 8.77-16.15 8.77-8.89 0-13.92-4.56-5.03-4.56-5.03-12.81t6.55-13.98q6.55-5.73 19.3-5.73h9.25v-4.22q0-5.5-6.91-5.5-6.9 0-12.28 1.53v6.66h-13.46V33.9q5.74-2.22 13.4-3.51 7.66-1.29 12.81-1.29 10.18 0 15.91 5.33 5.74 5.32 5.74 14.21v27.85h9.59v10.18q-5.03 2.69-12.64 2.69-12.16 0-12.16-8.19m-15.1-5.27q8.08 0 15.1-9.59v-.47h-9.36q-5.39 0-7.96 1.87-2.57 1.88-2.57 5.04 0 3.15 4.79 3.15"></path><rect width="59.9" height="60.84" x="-29.95" y="-30.42" fill="none" rx="0" ry="0" transform="translate(532.96 60.02)"></rect><path d="M565.919 43.14v-11.7l10.18-1.17q3.86-9.71 5.03-15.44h10.18v15.44h13.92v12.87h-13.92v28.9q0 1.99.64 2.99.65.99 2.87.99t7.72-2.22l5.62 11.93q-7.49 4.21-15.97 4.21-8.49 0-12.29-4.44-3.8-4.45-3.8-11.58V43.14Z"></path><rect width="42.24" height="75.11" x="-21.12" y="-37.55" fill="none" rx="0" ry="0" transform="translate(587.54 52.88)"></rect><path d="M62.054 19.656h2.677v64.243h-2.677zm-9.368 22.351h2.676V83.9h-2.676zm-9.37-22.351h2.678v64.243h-2.677zm-9.368 22.351h2.677V83.9h-2.677zm-9.369-22.351h2.677v64.243h-2.677zM15.21 42.007h2.677V83.9H15.21zM5.842 19.656h2.676v64.243H5.842z"></path></svg></svg>